<?xml version="1.0" encoding="UTF-8"?>
<svg width="512px" height="512px" viewBox="0 0 512 512" version="1.1" xmlns="http://www.w3.org/2000/svg" xmlns:xlink="http://www.w3.org/1999/xlink">
    <title>icon</title>
    <g id="icon" stroke="none" stroke-width="1" fill="none" fill-rule="evenodd">
        <circle id="Oval" fill="#0F172A" cx="256" cy="256" r="256"></circle>
        <path d="M433.037281,308.815736 C414.152373,327.60201 401.250349,338.499307 394.33121,341.507629 C389.124658,343.475431 384.146197,344.373003 378.870128,344.373003 C373.325728,344.373003 368.418793,343.374595 364.115302,341.530242 C355.047263,336.430341 348.487433,328.709589 343.90459,317.252481 C337.659252,301.194409 334.177651,273.888797 333.979963,235.094837 L333.973104,233.267955 L333.970934,222.970814 L333.966575,222.003084 L333.791399,222.319753 C326.840496,234.729704 307.08389,267.662531 274.44446,321.247496 L273.430885,322.911348 C270.678625,328.794741 266.483795,332.294439 261.35006,334.005684 C253.934018,335.892783 248.206568,334.890428 243.252359,331.782081 C239.653014,329.832892 236.928585,327.008786 235.079074,323.309763 C233.622724,319.763491 232.665025,315.881151 232.085402,310.938829 L231.96694,309.863272 L231.96694,304.704783 C231.96694,299.690574 232.403828,292.639234 233.308591,283.548192 C234.629753,262.076814 237.471103,231.461321 241.839738,191.701783 C242.664366,183.427725 243.08276,175.97842 243.08276,169.35333 C243.08276,166.892692 243.039991,164.598686 242.950926,162.471723 L242.949806,162.446265 C242.649654,162.903274 242.350043,163.340577 242.039491,163.766441 L241.725232,164.188214 C232.822915,175.217094 223.970363,190.605502 214.847105,210.510794 C167.671559,310.057608 141.653025,367.5221 136.897819,383.084593 C135.13155,388.394346 132.419919,392.00657 129.091118,394.503171 C125.410062,397.263963 121.268874,398.644359 116.667554,398.644359 C112.066234,398.644359 107.925047,397.263963 104.243991,394.503171 C101.047284,392.105641 98.7059878,389.26916 97.1121332,386.081451 C95.9618643,382.977006 95.3616219,380.471368 94.8021489,377.114531 C94.6616758,372.182744 94.4548515,366.727481 94.0664369,359.225232 L94,357.955643 L94,347.860319 C94,332.477855 94.4376257,315.120264 95.3152972,295.778704 C97.0634767,231.628183 100.347482,181.792802 105.131521,146.26861 C105.335442,140.774537 107.525891,136.162314 111.71596,132.437809 C115.746188,128.855384 120.4495,127.069623 125.821759,127.069623 C131.343342,127.069623 136.230049,129.04064 140.393365,133.203956 C144.199734,137.010326 146.344351,141.782676 146.51646,147.656962 L146.527698,148.429434 L146.527698,150.48671 C142.300806,180.911123 139.272875,222.333896 137.418383,274.752528 L137.342979,276.880361 L137.751831,276.008404 C147.557253,255.050763 160.224658,228.046037 175.754376,194.993699 L176.771242,192.829538 C187.667065,169.675914 198.385831,151.551078 208.825354,138.388201 C222.43466,121.512086 235.254143,113.795872 246.408689,112.733534 C256.708356,112.042491 265.031561,115.370151 271.71051,122.633007 C276.24717,127.257281 279.869356,133.743228 282.165056,142.352103 C284.141793,150.253568 285.14851,159.195375 285.14851,169.35333 C285.14851,177.031212 284.703095,186.064348 283.799797,196.452278 C282.202329,208.651663 280.857031,219.98231 279.744746,230.62419 L279.553547,232.458493 L279.687376,232.235648 C286.456631,220.781682 292.174567,210.829599 296.840493,202.379 L297.395354,201.372136 C309.106818,180.388664 319.17708,167.661449 326.925859,162.334107 C335.995333,156.066055 344.68965,154.972814 352.892106,157.706966 C360.100945,160.570247 365.647227,165.617933 369.655192,173.633862 C372.444147,180.748849 374.283634,190.187336 375.279352,202.890577 L375.382812,204.264174 L375.382812,231.471147 C375.382812,249.25124 376.108366,264.175184 377.590103,276.240751 C378.875348,286.706317 380.344726,294.741431 382.127367,300.309885 L382.220131,300.59193 L382.389282,300.471487 C387.704344,296.605525 394.287838,289.791214 402.356168,280.392028 L403.11693,279.503292 C407.533876,273.757678 420.682852,250.355508 423.797,247.908677 C427.068277,245.338389 431.204149,243.781857 436.414781,243.781857 C442.644725,243.781857 447.668395,245.944326 451.640258,249.91619 C455.803574,254.079506 457.774591,258.966212 457.774591,264.487796 C457.774591,266.611736 454.943532,272.613323 454.046616,274.752528 C443.075753,300.59193 443.075753,293.295248 433.037281,308.815736 Z" id="Path" fill="#FFFFFF"></path>
    </g>
</svg>
