<?xml version="1.0" encoding="UTF-8"?>
<svg xmlns="http://www.w3.org/2000/svg" width="512" height="512">
  <g fill="none" fill-rule="evenodd">
    <circle cx="256" cy="256" r="256" fill="#000"/>
    <path fill="#FFF" fill-rule="nonzero" d="m412 328-3 12-28 9-17 3c-10 0-18-3-23-8s-7-11-7-19v-9l3-12 18-70a226 226 0 0 0 5-25c0-8-2-15-6-19-3-5-9-8-17-8s-17 2-25 6-17 11-27 22l-32 139h-35l29-125a213 213 0 0 0 3-16c0-8-2-14-6-19-4-4-10-7-18-7-7 0-15 2-24 6-8 3-18 11-30 23l-31 138h-35l28-121a365 365 0 0 0 4-27c0-7-1-12-4-15-2-2-7-3-13-3l-11 2-10 2 3-12c10-4 18-8 26-10l19-3c10 0 17 3 21 8 4 6 7 13 7 22h1c15-11 27-20 36-25 10-5 21-7 34-7 11 0 20 3 27 10 7 6 11 14 12 24h1c13-11 25-20 35-25 11-6 23-9 37-9 12 0 21 3 27 10 7 7 10 16 10 28a119 119 0 0 1-4 29l-16 60a170 170 0 0 0-5 26c0 7 2 11 5 14s8 4 15 4a81 81 0 0 0 21-3Z"/>
  </g>
</svg>
