<svg viewBox="0 0 825 277" version="1.1" xmlns="http://www.w3.org/2000/svg" xmlns:xlink="http://www.w3.org/1999/xlink">
    <title>micha149</title>
    <g id="micha149" stroke="none" stroke-width="1" fill="none" fill-rule="evenodd">
        <path d="M820.15,74.6 C823.008333,74.6 825.313221,75.5921529 827.135534,77.4144661 C828.957847,79.2367793 829.95,81.5416667 829.95,84.4 C829.95,103.135037 821.840279,134.72504 805.338744,179.136572 C803.337594,184.539677 800.18579,192.99454 795.883317,204.501153 C791.578674,216.013572 788.22503,224.923173 785.822439,231.229977 C783.445773,237.468725 780.871747,244.797021 778.098974,253.214368 C775.334968,261.605099 773.161698,268.761715 771.582323,274.685384 C770.978268,277.046177 769.868995,278.72625 768.503957,279.896283 C766.960338,281.219385 765.008025,282 762.55,282 C759.691667,282 757.386779,281.007847 755.564466,279.185534 C753.654314,277.275381 752.75,275.033333 752.75,272.5 C752.75,271.560128 752.923229,270.61399 753.304485,269.668338 C754.918952,263.265464 757.114858,255.793052 759.895643,247.25207 C762.718403,238.582163 765.340011,230.970961 767.759518,224.41813 C770.163685,217.906843 773.51944,208.991365 777.826907,197.671743 C782.110546,186.414738 785.2489,177.997012 787.24129,172.418318 C793.691692,155.2893 798.786983,140.444932 802.544562,127.803009 C784.473089,151.996785 767.063743,169.781767 750.37716,181.224068 C739.805202,188.556029 730.276646,192.651852 721.870783,193.748644 C720.430521,193.983173 718.990236,194.1 717.55,194.1 C709.343528,194.1 703.603414,191.180989 699.953617,185.967294 C697.401703,182.377066 696.05,178.038835 696.05,172.9 C696.05,168.252289 697.298617,162.37334 699.952765,155.28286 C703.708066,144.271346 709.9236,132.935199 718.650299,121.29934 C727.974092,108.66681 738.444304,98.2166937 750.043809,89.9313326 C762.187268,81.2574333 774.671559,77 787.45,77 C789.983333,77 792.225381,77.9043135 794.135534,79.8144661 C795.99977,81.6787026 796.95,83.9521505 796.95,86.65 C796.95,89.3478495 795.99977,91.6212974 794.135534,93.4855339 C792.225381,95.3956865 789.983333,96.3 787.45,96.3 C778.932425,96.3 770.016701,99.7485166 760.622591,106.342459 C750.643149,113.34726 741.72648,122.134026 733.85879,132.689761 C726.596977,142.829502 721.316973,152.481932 718.063136,161.669236 C716.476616,165.902364 715.65,169.612129 715.65,172.9 C715.65,173.656164 715.325,174.4 715.55,174.7 C716.798576,175.095762 717.905705,175.040154 719.220924,174.853213 C725.053698,173.931386 731.840127,170.724657 739.657228,165.45227 C762.427692,149.732046 786.477279,120.88386 811.982106,79.0951818 C814.224581,75.9332618 816.912573,74.6 820.15,74.6 L820.15,74.6 Z M659.65,73.4 C662.508333,73.4 664.813221,74.3921529 666.635534,76.2144661 C668.545686,78.1246186 669.45,80.3666667 669.45,82.9 C669.45,84.4407407 669.094814,85.990712 668.322136,87.536068 C659.358188,104.853853 644.766669,125.476024 624.462777,149.434695 C613.036181,163.028882 605.141373,172.98002 600.79404,179.299491 C600.010586,180.512398 599.32326,181.623154 598.735418,182.633366 L598.728,182.645 L598.943493,182.633674 L598.943493,182.633674 L599.338109,182.609737 C604.144933,182.408373 613.448222,181.217721 627.351365,179.063679 C633.63444,177.955161 643.470189,176.254497 656.85719,173.958837 C661.666588,147.591331 666.568146,122.78827 671.56158,99.5495957 C672.162538,96.9428961 673.310947,95.1440351 674.750347,93.8965546 C676.340002,92.518854 678.37069,91.7 680.95,91.7 C683.483333,91.7 685.725381,92.6043135 687.635534,94.5144661 C689.457847,96.3367793 690.45,98.6416667 690.45,101.5 L690.45,101.5 L690.45,102.933008 C685.866145,124.175103 681.366568,146.67978 676.952049,170.444987 C677.813916,170.303195 678.708487,170.154866 679.635763,170 L679.635763,170 L680.95,170 C683.414822,170 685.572728,170.819317 687.421819,172.462953 C689.341014,174.168904 690.45,176.465759 690.45,179.5 C690.45,182.170224 689.663803,184.186652 688.454344,185.698475 C687.163192,187.312415 685.302748,188.493511 682.671995,188.93197 C681.270615,189.133532 679.984136,189.363336 678.697645,189.639012 C677.158046,189.968926 675.453787,190.245802 673.584206,190.465753 C669.429057,212.811357 666.184192,232.681094 663.681622,250.097104 L663.344948,252.456807 C662.846791,255.973555 662.379371,259.387683 661.941251,262.699382 C661.844812,264.883882 660.944659,266.938967 658.921819,268.737047 C657.072728,270.380683 654.914822,271.2 652.45,271.2 C649.916667,271.2 647.674619,270.295686 645.764466,268.385534 C643.854314,266.475381 642.95,264.233333 642.95,261.7 L642.95,261.7 L642.95,260.783086 C645.344301,241.945597 648.761884,219.694415 653.201586,194.029904 C643.731569,195.657081 636.162646,196.956484 630.494819,197.928111 C615.672106,200.398618 605.628281,201.708328 600.343314,201.9 L600.343314,201.9 L597.25,201.9 C594.27963,201.9 591.653646,201.659749 589.369419,201.202903 C583.922478,199.62133 580.697282,196.825257 578.936505,193.052652 C578.019724,191.187896 577.55,189.172169 577.55,187 C577.55,184.876984 578.023018,182.478735 579.075825,179.822175 C580.182493,176.75866 582.124245,173.034345 584.952149,168.683744 C589.426364,161.769048 597.750599,151.183015 609.955961,136.943136 C629.011375,114.348738 642.798919,95.0030446 651.269134,78.8754747 C652.086644,77.1200559 653.196794,75.8516855 654.47895,74.964039 C655.92462,73.9631907 657.634298,73.4 659.65,73.4 L659.65,73.4 Z M336.992684,-4.63518029 C339.77559,-3.83422382 341.867304,-2.17253965 343.291216,0.319305308 C344.220169,2.15999779 344.855182,4.52321453 345.12748,7.72127453 C345.544307,11.5650516 345.368793,17.3067778 344.519279,24.9557189 C340.498196,64.5012321 327.601738,118.762521 305.772804,187.729659 C305.38044,191.720975 305.003942,195.680553 304.643312,199.608393 L304.561,200.507 L304.668021,200.277804 C313.75515,180.719762 321.309731,165.515115 327.40058,154.475727 L327.676429,153.976805 C333.701347,143.173464 338.2969,135.93347 341.408894,132.199078 C344.179486,128.874367 346.902219,126.978798 349.368861,126.156584 C353.021163,125.317772 355.797072,125.768143 358.230695,127.158784 C360.47411,128.640154 361.968316,130.40285 362.970712,132.657566 C364.244426,135.213108 365.177342,140.401239 365.245786,148.437018 L365.249062,148.976958 L365.25,149.5 C365.25,151.73686 365.149796,155.549719 364.946444,160.938545 C364.749401,166.160169 364.65,170.347313 364.65,173.5 C364.65,185.852567 365.639421,195.563865 367.724844,202.613136 C368.947243,206.27961 369.948172,209.218608 371.831682,209.89129 C372.232865,210.03457 372.670729,209.859971 373.134067,209.687874 C374.437674,209.203677 375.838369,208.238866 377.396043,206.903717 C382.721735,202.527621 388.085354,195.353948 393.698716,185.437009 C394.306352,184.538782 394.65477,184.123456 395.024922,183.743949 C400.048983,173.476737 406.117403,164.968418 413.190473,158.190059 C422.364673,149.452693 432.092678,145.10005 442.276355,144.814996 L442.736,144.805 L442.863133,141.243019 C443.187131,138.832303 444.208998,136.821078 445.916858,135.202756 L446.178181,134.962953 C448.027272,133.319317 450.185178,132.5 452.65,132.5 C455.183333,132.5 457.425381,133.404314 459.335534,135.314466 C461.245686,137.224619 462.15,139.466667 462.15,142 C461.20017,161.964708 460.523595,181.08918 460.115526,199.830455 L460.05,202.950531 L460.05,204.7 L460.049852,206.249193 C460.05104,210.617591 460.083971,214.045815 460.609588,216.210511 C460.88208,216.025333 461.172382,215.820944 461.482584,215.603759 C467.467775,211.344162 476.738888,200.648149 489.45,183.7 C491.593793,181.117199 494.165842,179.9 497.35,179.9 C499.883333,179.9 502.125381,180.804314 504.035534,182.714466 C505.945686,184.624619 506.85,186.866667 506.85,189.4 C506.85,191.247458 506.35196,193.114986 505.237465,194.972479 C490.663076,214.449232 479.818542,226.358456 472.582644,231.32021 C468.608143,234.052679 464.979999,235.562826 461.766758,236.048496 L461.397844,236.1 L459.25,236.1 C454.85873,236.1 451.219055,234.603868 448.288164,231.709987 C443.676801,227.466961 440.75,219.229377 440.75,206.2 C440.75,204.849188 440.85277,203.498333 441.059,202.146901 C441.130551,198.993086 441.202075,195.762482 441.272819,192.456309 C438.168406,197.261544 434.547682,202.767355 430.410251,208.973501 C425.875661,215.775387 421.235604,221.853906 416.494983,227.212869 C410.339782,233.826387 405.192278,237.727391 401.147815,239.326896 C398.746586,240.359918 396.488999,240.736953 394.393765,240.587293 C392.050893,240.419946 389.862834,239.609626 387.849669,238.100146 C384.877795,235.91059 382.84279,232.280856 382.579105,226.66489 L382.565,226.319 L382.369521,226.41921 C376.541791,229.330304 371.050963,229.766754 365.925835,228.158904 L365.568861,228.043416 C358.526937,225.615448 352.91768,219.348787 349.473571,208.278419 C346.754703,199.494385 345.443193,187.895546 345.650002,173.46171 C345.65034,170.353599 345.691832,166.460565 345.774766,161.782611 L345.787,161.095 L345.596229,161.430423 C345.359043,161.84712 345.11898,162.270176 344.87604,162.699587 L344.509472,163.34847 C336.358788,177.860662 325.629486,199.930005 312.31018,229.550551 C307.763565,239.470748 304.656008,245.742949 303.008292,248.420487 C301.715523,250.097002 300.88952,251.031548 300.185534,251.735534 C299.332996,252.588072 298.475637,253.292161 297.623501,253.860251 C297.416968,253.99794 297.202943,254.132839 296.980941,254.264693 C296.735042,254.352609 296.482621,254.433615 296.223606,254.50762 C293.640702,255.245592 291.246739,255.045984 289.028899,254.023767 C287.305681,253.384451 285.920142,252.359497 284.843408,250.989108 C283.868407,249.748197 283.133353,248.185266 282.758292,246.242457 C282.508351,245.164884 282.35,243.72086 282.35,241.9 C282.798832,233.584972 283.317739,225.561259 283.913598,217.48679 C270.692528,232.113563 258.911396,242.642436 248.615603,249.130196 C240.902024,253.759737 234.116258,256.315331 228.21759,257.032804 C227.128365,257.278735 226.03903,257.4 224.95,257.4 C218.895801,257.4 213.750084,255.58322 209.471464,252.059651 C202.418323,245.919083 198.470729,235.942727 198.352725,221.566638 L198.351,221.261 L198.305447,221.307994 C191.371928,228.178569 185.371677,233.014115 180.344332,235.865676 L179.978215,236.070786 C175.467634,238.576664 171.440335,239.7 167.95,239.7 C166.223684,239.7 164.495907,239.419099 162.768861,238.843416 C160.089287,237.950225 157.759162,236.340325 155.81943,233.952963 C154.188641,231.945838 152.855329,229.570529 151.851033,226.808715 C151.394305,225.129486 151.047057,223.401153 150.802191,221.586128 L150.767,221.307 L150.392001,221.750769 C143.649155,229.666826 137.80544,234.514998 133.043631,236.58535 C130.654835,237.488189 128.37069,237.9 125.95,237.9 C123.406198,237.9 121.154869,237.441925 119.180404,236.595725 C115.019937,234.255862 112.010251,230.713538 109.907617,225.456953 C107.042221,218.089421 105.444843,205.561454 105.354143,187.762569 L105.350995,186.924386 L105.35,182.2 L105.348,181.756 L105.267628,181.90129 C102.078515,187.595044 93.0140744,202.704809 78.0389224,227.289889 L77.5738887,228.053273 C76.3111365,230.752607 74.386525,232.358288 72.0311388,233.143416 C68.6286175,234.009228 66.0008314,233.549342 63.727813,232.123215 C62.0764132,231.228916 60.8264303,229.9332 59.977864,228.236068 C59.3096829,226.609019 58.870285,224.82778 58.604351,222.560215 L58.55,222.066743 L58.55,219.7 C58.55,217.399453 58.7504466,214.164259 59.165557,209.993238 C59.7717132,200.14205 61.0753406,186.095492 63.0796945,167.853595 C63.4580383,164.057411 63.65,160.639628 63.65,157.6 C63.65,156.471046 63.6303774,155.418543 63.5895138,154.44268 L63.589,154.431 C63.4512885,154.640678 63.3138254,154.841316 63.1713423,155.036704 L63.0271586,155.230216 C58.9427257,160.290328 54.881126,167.350615 50.6953241,176.483274 C29.0509212,222.155906 17.1134729,248.520934 14.9317579,255.661093 C14.1213838,258.097237 12.8772727,259.754545 11.35,260.9 C9.66111111,262.166667 7.76111111,262.8 5.65,262.8 C3.53888889,262.8 1.63888889,262.166667 -0.05,260.9 C-1.51666667,259.8 -2.59086663,258.498607 -3.32213596,257.036068 C-3.84988573,255.611731 -4.12528031,254.462131 -4.38196962,252.921995 C-4.44641945,250.659264 -4.54131159,248.156359 -4.71951837,244.714285 L-4.75,244.131791 L-4.75,239.5 C-4.75,232.44244 -4.54921488,224.47868 -4.14653431,215.604665 C-3.34445983,186.172049 -1.83774007,163.307299 0.357203916,147.008602 C0.450764047,144.487891 1.45575403,142.371777 3.37818081,140.662953 C5.227272,139.019317 7.38517787,138.2 9.85,138.2 C12.3833333,138.2 14.6253814,139.104314 16.5355339,141.014466 C18.2819174,142.76085 19.2658793,144.950431 19.3448443,147.645586 L19.35,148 L19.35,148.94389 C17.4106785,162.90278 16.0214471,181.907779 15.1705955,205.957738 L15.136,206.934 L15.3235837,206.533941 C19.8223657,196.918459 25.6342414,184.52854 32.7593628,169.363944 L33.2259065,168.371015 C38.2249707,157.748003 43.1428001,149.432228 47.9325116,143.393026 C54.1765369,135.650171 60.0581868,132.109929 65.1759545,131.622523 C69.9014993,131.305468 73.720232,132.832217 76.7845709,136.164456 C78.8660159,138.286098 80.5278948,141.261887 81.5811747,145.211687 C82.4881127,148.836923 82.95,152.939474 82.95,157.6 C82.95,161.122655 82.7456412,165.267108 82.3312029,170.033148 C81.5982758,175.630294 80.9810456,180.828858 80.4707231,185.711412 L80.383,186.553 L80.4444015,186.450757 C83.5501731,181.195614 86.1735942,176.629543 88.314347,172.752361 L88.5689205,172.290406 C93.942205,162.663072 98.5624973,156.823756 102.11768,154.379542 C106.278805,151.503724 110.267806,151.002139 114.031139,152.256584 C117.338594,153.570273 119.883259,155.886179 121.722136,159.563932 C123.001724,162.828327 123.845691,167.158758 124.302532,172.987076 L124.35,173.617289 L124.35,186.1 C124.35,194.257606 124.682888,201.104794 125.362717,206.640543 C125.952395,211.442203 126.626554,215.128758 127.444439,217.683596 L127.487,217.813 L127.564607,217.75774 C130.003187,215.984015 133.023731,212.857571 136.725526,208.545172 L137.074568,208.137416 C139.101087,205.501296 144.641545,198.24149 153.695248,186.356948 C155.436002,178.29314 157.649416,169.687928 160.453853,160.384573 C161.089744,158.126695 162.232104,156.516028 163.660892,155.393408 C165.161772,154.214146 167.059333,153.5 169.45,153.5 C172.308333,153.5 174.613221,154.492153 176.435534,156.314466 C178.345686,158.224619 179.25,160.466667 179.25,163 C179.25,163.974476 179.063781,164.955687 178.65227,165.937166 C175.167324,177.977937 172.641396,188.668761 171.083956,198.012607 C170.133363,204.302166 169.65,209.830951 169.65,214.6 C169.65,216.569892 169.74744,218.259084 169.978358,219.660987 L170.034,219.981 L170.148272,219.881509 C170.277012,219.770765 170.409305,219.665219 170.54402,219.578113 L170.679501,219.497645 C178.541863,215.003037 189.781048,203.608161 204.459287,185.616563 C205.434195,182.748237 206.526888,179.866834 207.736655,176.972035 C211.744768,167.47905 217.011196,158.899255 223.539016,151.213274 C230.261369,143.298244 236.915809,137.776926 243.413932,134.527864 C246.397595,133.036032 249.1598,132.307533 251.674295,132.211066 C252.952437,131.975895 254.230676,131.994638 255.509598,132.267323 C260.761338,132.939511 264.606606,135.740105 266.974094,140.771015 C268.277701,143.637896 268.95,146.822222 268.95,150.4 C268.95,155.380615 267.517375,162.325672 264.481749,171.215719 C263.57013,173.512586 262.326779,174.991399 260.798501,176.010251 C259.298906,177.009981 257.469593,177.6 255.25,177.6 C252.716667,177.6 250.474619,176.695686 248.564466,174.785534 C246.654314,172.875381 245.75,170.633333 245.75,168.1 C245.75,166.805059 245.992782,165.71511 246.376385,164.801405 C247.765214,160.472824 248.687152,156.687147 249.1006,153.439403 L249.11,153.353 L248.899947,153.49273 C245.799428,155.574067 242.406973,158.884511 238.650715,163.315102 L238.231853,163.811994 C232.847718,170.235173 228.545954,177.128496 225.333897,184.498248 C220.55096,195.921405 217.886997,206.98416 217.386683,217.695678 L217.35,218.587491 L217.35,220.6 C217.35,228.564559 218.396096,234.36148 221.796121,237.113641 C222.895251,237.980249 224.349446,238.210016 226.045184,238.115198 C229.464803,237.747765 233.596166,235.903743 238.505536,232.856557 C251.77645,224.586277 267.823185,208.379891 286.765098,184.390407 C286.817802,184.156447 286.879285,183.930919 286.948525,183.71335 C292.577575,131.31025 301.396428,81.2986252 313.399287,33.6873219 C315.835263,23.9434182 318.075009,16.2200792 320.106929,10.5135893 C320.989953,7.66574899 321.990788,5.24589542 323.084657,3.24272945 C324.570309,0.0433505071 326.330589,-1.99631123 328.076499,-3.16025147 C329.874711,-4.24577861 331.479321,-4.74830657 333.072085,-4.87040114 C334.598802,-5.22265899 335.893435,-5.05983488 336.992684,-4.63518029 Z M435.486,165.516 L435.232791,165.632903 C432.269457,167.019819 429.335512,169.172628 426.400377,172.018688 C418.309251,179.733482 411.979814,190.497375 407.248967,204.308715 L407.248967,204.308715 L407.039551,204.886563 C406.278786,206.993024 405.596149,208.964048 404.995138,210.799851 L404.995138,210.799851 L404.882,211.145 L405.140079,210.844978 C408.346238,207.065802 411.495213,202.892254 414.589625,198.326429 C423.384178,185.134782 430.302592,174.282577 435.339334,165.76664 L435.339334,165.76664 L435.486,165.516 Z M575.05,75.2 C578.812745,75.2 581.349937,76.6375866 583.318667,79.393809 C584.453405,81.5264707 584.85,83.1666667 584.85,85 C584.85,86.1263158 584.669099,87.2540926 584.293416,88.3811388 C568.364664,130.995023 556.464214,179.515129 548.512159,234.104018 C554.96082,233.426885 561.802709,232.861943 569.037716,232.409737 C572.11013,232.209968 574.272225,233.218869 576.121819,234.862953 C578.041014,236.568904 579.15,238.865759 579.15,241.9 C579.15,244.364822 578.330683,246.522728 576.687047,248.371819 C574.928441,250.350251 572.738469,251.357013 570.118347,251.398758 C561.771867,251.892039 553.900929,252.588457 546.505652,253.489186 L545.956,253.557 L545.947627,253.598774 C545.461486,255.698276 544.400539,257.384522 542.823062,258.693252 L542.569703,258.896761 C540.700323,260.350723 538.710606,261 536.65,261 C533.791667,261 531.486779,260.007847 529.664466,258.185534 C529.083115,257.604183 528.594933,256.99209 528.197057,256.350398 L528.185,256.329 L527.992882,256.352732 C519.815031,257.36566 511.664274,259.013599 503.689487,260.991672 L502.284028,261.344109 C501.338252,261.72636 500.390986,261.9 499.45,261.9 C496.916667,261.9 494.674619,260.995686 492.764466,259.085534 C490.942153,257.263221 489.95,254.958333 489.95,252.1 C489.95,249.583128 490.704943,247.602416 491.945656,246.051525 C493.151421,244.544319 494.890552,243.36098 497.337322,242.749287 C507.711893,240.201103 518.228947,238.145426 528.908285,236.575307 C534.091503,199.198068 541.145432,164.447512 550.064383,132.322298 L550.265,131.602 L549.905344,132.069956 C540.884799,143.791012 534.718168,151.679078 531.382091,155.768696 L531.220303,155.966763 C528.258121,159.71902 526.083582,162.486647 524.696761,164.269703 C523.595668,165.425399 523.086985,165.958401 522.810251,166.373501 C522.527295,166.775846 522.364808,166.95626 522.185534,167.135534 C521.515546,167.805522 520.829636,168.24105 520.15121,168.511892 C518.987273,169.227572 517.714431,169.726133 516.330581,170.002903 C511.819449,170.1 509.015408,168.616503 507.012096,165.511511 C505.728732,163.712553 505.235132,161.713616 505.56198,159.507443 C505.616817,158.393103 505.856364,157.440764 506.207037,156.63017 C506.860189,154.830545 507.861076,153.494575 509.133783,152.545149 L509.133783,152.545149 L510.014466,151.664466 C511.499629,150.179303 513.526489,147.660176 516.124721,144.134005 C519.652265,139.768227 526.727656,130.698581 537.491089,116.745983 C547.737002,103.687192 554.951774,94.5688634 559.16004,89.358136 C562.132261,85.5932214 564.313352,82.8172942 565.703239,81.0302969 C566.974015,79.5009318 567.980355,78.5249342 568.774312,77.9046197 L568.774312,77.9046197 L569.331193,77.3477393 C571.234229,75.8169176 573.169472,75.2 575.05,75.2 L575.05,75.2 Z M181.05,108.3 C183.908333,108.3 186.213221,109.292153 188.035534,111.114466 C189.945686,113.024619 190.85,115.266667 190.85,117.8 C190.85,118.782274 190.660788,119.771391 190.242653,120.759147 C189.116889,124.530743 188.174552,128.025966 187.417086,131.245197 C186.78902,133.759448 185.605681,135.498579 184.098475,136.704344 C182.547584,137.945057 180.566872,138.7 178.05,138.7 C175.516667,138.7 173.274619,137.795686 171.364466,135.885534 C169.454314,133.975381 168.55,131.733333 168.55,129.2 L168.55,129.2 L168.55,127.356517 C169.607593,123.293744 170.777167,119.230981 172.058588,115.167805 C172.695405,112.918718 173.835643,111.313247 175.260892,110.193408 C176.761772,109.014146 178.659333,108.3 181.05,108.3 L181.05,108.3 Z" id="Combined-Shape-Copy" fill="#000000" fill-rule="nonzero"></path>
    </g>
</svg>
