<svg xmlns="http://www.w3.org/2000/svg" viewBox="0 0 1024 1204">
  <path fill="currentColor" d="M997.6 0c10.4 0 18.6 4 23 11 4.6 7.5 4.5 17.3-.3 26.9L636.1 717.2a1 1 0 0 0 0 1.2l244.6 447c4.9 9.5 5 19.3.4 26.7-4.4 7.2-12.6 11.1-23 11.1H684.6c-26.6 0-39.9-17.6-48.5-33 0 0-246-451.2-246.5-452.4L775.8 33.1C785.1 16.3 796.4 0 822.3 0ZM266.8 237.6c26.6 0 39.7 17.2 48.3 32.6l57.6 100.4 3.6 6.3 58.1 101.3-187.3 331.3c-9 16-21.4 33.5-47.4 33.5H26.2a25.5 25.5 0 0 1-22.7-11.8c-4.6-7.4-4.8-17 0-26.6L188 479.2c.2-.4.2-.6 0-1L70.6 275.1c-4.9-9.7-5.6-19.2-1-26.6 4.4-7.2 13.2-10.9 23.6-10.9Z"/>
</svg>
